<svg version="1.2" xmlns="http://www.w3.org/2000/svg" viewBox="0 0 48 48" width="48" height="48">
	<title>icons8-bootstrap-svg</title>
	<style>
		.s0 { fill: #ffffff } 
		.s1 { fill: #000000 } 
	</style>
	<path id="Forma 1" class="s0" d="m9 4h30c0 0 5 0.5 5 5 0 4.5 0 5 0 5v25c0 0-0.2 5-5 5-4.8 0-30 0-30 0 0 0-5-0.2-5-5 0-4.8 0-30 0-30 0 0 0-5.1 5-5z"/>
	<path id="Layer" class="s1" d="m42 37c0 2.8-2.2 5-5 5h-26c-2.8 0-5-2.2-5-5v-26c0-2.8 2.2-5 5-5h26c2.8 0 5 2.2 5 5z"/>
	<path id="Layer" fill-rule="evenodd" class="s0" d="m34 28.9q0 3.5-2.2 5.3-2.1 1.8-6.4 1.8h-10.4v-24h9.4c2.9 0 4.7 0.8 6.3 1.9q2.3 1.7 2.3 4.9 0 1.9-0.8 3.2c-0.9 1.4-2 1.8-2 1.8q1.9 0.4 2.8 1.8 1 1.4 1 3.3zm-13-7.4c0 0 4.2 0 4.3 0 1.5 0 2.7-1.2 2.7-2.7 0-1.6-1.2-2.8-2.7-2.8-0.1 0-4.3 0-4.3 0zm8 7.5c0-1.7-1.3-3-3-3h-5v6h5c1.7 0 3-1.3 3-3z"/>
</svg>