<svg version="1.2" xmlns="http://www.w3.org/2000/svg" viewBox="0 0 48 48" width="48" height="48">
	<title>icons8-css3 (1)-svg</title>
	<style>
		.s0 { fill: #eeeeee } 
		.s1 { fill: #0277bd } 
		.s2 { fill: #039be5 } 
		.s3 { fill: #ffffff } 
	</style>
	<path id="Forma 1" class="s0" d="m4.7 2.9l38.7-0.1-3.2 37.5-16.2 5-16-5.1z"/>
	<path id="Layer" class="s1" d="m38 39l-14 4-14-4-3-34h34z"/>
	<path id="Layer" class="s2" d="m37.7 8l-2.5 28.7-11.2 3.2v-31.9z"/>
	<path id="Layer" class="s3" d="m32.6 21l-0.7 11.5-7.9 2.6v-4.2l4.1-1.4 0.3-4.5h-4.4v-4h4.6l0.3-4h-4.9v-4h9.1z"/>
	<path id="Layer" fill-rule="evenodd" class="s0" d="m24 13v4h-8.9l-0.3-4zm-4.6 8l0.2 4h4.4v-4zm0.4 6h-4l0.3 5.5 7.9 2.6v-4.2l-4.1-1.4z"/>
</svg>