<svg version="1.2" xmlns="http://www.w3.org/2000/svg" viewBox="0 0 48 48" width="48" height="48">
	<title>icons8-git-svg</title>
	<style>
		.s0 { fill: #ffffff } 
		.s1 { fill: #f4511e } 
	</style>
	<path id="Forma 1" class="s0" d="m28 5l15 15c0 0 4 3.3 0 8-4 4.7-15 15-15 15 0 0-3.8 3.9-8.7-0.7-4.9-4.6-14.3-14.3-14.3-14.3 0 0-3.9-4.5 0.6-9.1 4.4-4.6 14.4-13.9 14.4-13.9 0 0 4.1-4.7 8 0z"/>
	<path id="Layer" class="s1" d="m43 24c0 0.7-0.3 1.4-0.8 1.9l-16.3 16.3c-0.5 0.5-1.2 0.8-1.9 0.8-0.7 0-1.4-0.3-1.9-0.8l-16.3-16.3c-0.5-0.5-0.8-1.2-0.8-1.9 0-0.7 0.3-1.4 0.8-1.9l11.4-11.5 4.1 4.1c-0.2 0.4-0.3 0.8-0.3 1.3 0 1.3 0.8 2.4 2 2.8v10.5c-1.2 0.4-2 1.5-2 2.8 0 1.7 1.3 3 3 3 1.7 0 3-1.3 3-3 0-1.3-0.8-2.4-2-2.8v-10.4c0.1 0 0.2-0.1 0.3-0.1l4 4c-0.2 0.4-0.3 0.8-0.3 1.3 0 1.7 1.3 3 3 3 1.7 0 3-1.3 3-3 0-1.7-1.3-3-3-3-0.5 0-0.9 0.1-1.3 0.3l-4-4c0.2-0.4 0.3-0.8 0.3-1.3 0-1.7-1.3-3-3-3-0.5 0-0.9 0.1-1.3 0.3l-4.1-4.1 3.5-3.5c0.5-0.5 1.2-0.8 1.9-0.8 0.7 0 1.4 0.3 1.9 0.8l16.3 16.3c0.5 0.5 0.8 1.2 0.8 1.9z"/>
</svg>