<svg version="1.2" xmlns="http://www.w3.org/2000/svg" viewBox="0 0 48 48" width="48" height="48">
	<title>icons8-html-5-svg</title>
	<style>
		.s0 { fill: #eeeeee } 
		.s1 { fill: #000000 } 
		.s2 { fill: #ffffff } 
	</style>
	<path id="Forma 1" class="s0" d="m5.1 3.3h37.8l-3 36.7-15.9 5-15.9-5z"/>
	<path id="Layer" class="s1" d="m38 39l-14 4-14-4-3-34h34z"/>
	<path id="Layer" class="s1" d="m37.7 8l-2.5 28.7-11.2 3.2v-31.9z"/>
	<path id="Layer" fill-rule="evenodd" class="s2" d="m24 25v-4h8.6l-0.7 11.5-7.9 2.6v-4.2l4.1-1.4 0.3-4.5zm0-8v-4h9.2l-0.3 4z"/>
	<path id="Layer" fill-rule="evenodd" class="s0" d="m24 30.9v4.2l-7.9-2.6-0.4-5.5h4l0.2 2.5zm-4.9-13.9h4.9v-4h-9.1l0.7 12h8.4v-4h-4.6z"/>
</svg>