<svg version="1.2" xmlns="http://www.w3.org/2000/svg" viewBox="0 0 16 16" width="16" height="16">
	<title>mail - Copia-svg</title>
	<style>
		.s0 { fill: #ffffff } 
	</style>
	<path id="Layer" fill-rule="evenodd" class="s0" d="m0.1 3.6q0-0.4 0.2-0.7 0.2-0.3 0.5-0.5 0.2-0.2 0.5-0.3 0.4-0.1 0.7-0.1h12q0.3 0 0.7 0.1 0.3 0.1 0.5 0.3 0.3 0.2 0.5 0.5 0.2 0.3 0.3 0.7l-8 4.8zm5.8 4.7l-5.9 3.6 0.1-7.1zm2.1 1.3l1.3-0.8 6.6 4.1q-0.2 0.2-0.4 0.4-0.1 0.3-0.4 0.4-0.2 0.2-0.5 0.2-0.3 0.1-0.6 0.1h-12q-0.2 0-0.5-0.1-0.3 0-0.5-0.2-0.3-0.1-0.5-0.4-0.1-0.2-0.3-0.4l6.6-4.1c0 0 1.2 0.8 1.2 0.8zm8-4.9v7.1l-5.8-3.5c0 0 5.8-3.6 5.8-3.6z"/>
</svg>